<svg width="24" height="24" viewBox="0 0 24 24" fill="none" xmlns="http://www.w3.org/2000/svg">
<mask id="mask0_15_37" style="mask-type:alpha" maskUnits="userSpaceOnUse" x="0" y="0" width="24" height="24">
<rect width="24" height="24" fill="#D9D9D9"/>
</mask>
<g mask="url(#mask0_15_37)">
<path d="M12.35 16.5C11.6833 17.1667 10.875 17.5 9.925 17.5C8.975 17.5 8.16667 17.1667 7.5 16.5C6.83333 15.8333 6.5 15.029 6.5 14.087C6.5 13.1457 6.83333 12.3417 7.5 11.675L11.65 7.5C12.3167 6.83333 13.125 6.5 14.075 6.5C15.025 6.5 15.8333 6.83333 16.5 7.5C17.1667 8.16667 17.5 8.97067 17.5 9.912C17.5 10.854 17.1667 11.6583 16.5 12.325L12.35 16.5ZM8.9 15.075C9.28333 15.4583 9.67933 15.596 10.088 15.488C10.496 15.3793 10.775 15.25 10.925 15.1L12.3 13.7L10.3 11.7L8.9 13.075C8.61667 13.3583 8.475 13.6917 8.475 14.075C8.475 14.4583 8.61667 14.7917 8.9 15.075ZM15.1 8.925C14.7167 8.54167 14.321 8.404 13.913 8.512C13.5043 8.62067 13.225 8.75 13.075 8.9L11.7 10.3L13.7 12.3L15.1 10.925C15.3833 10.6417 15.525 10.3083 15.525 9.925C15.525 9.54167 15.3833 9.20833 15.1 8.925ZM5 21C4.45 21 3.979 20.8043 3.587 20.413C3.19567 20.021 3 19.55 3 19V5C3 4.45 3.19567 3.979 3.587 3.587C3.979 3.19567 4.45 3 5 3H9.2C9.41667 2.4 9.77933 1.91667 10.288 1.55C10.796 1.18333 11.3667 1 12 1C12.6333 1 13.2043 1.18333 13.713 1.55C14.221 1.91667 14.5833 2.4 14.8 3H19C19.55 3 20.021 3.19567 20.413 3.587C20.8043 3.979 21 4.45 21 5V19C21 19.55 20.8043 20.021 20.413 20.413C20.021 20.8043 19.55 21 19 21H5ZM5 19H19V5H5V19ZM12 4.25C12.2167 4.25 12.396 4.179 12.538 4.037C12.6793 3.89567 12.75 3.71667 12.75 3.5C12.75 3.28333 12.6793 3.104 12.538 2.962C12.396 2.82067 12.2167 2.75 12 2.75C11.7833 2.75 11.6043 2.82067 11.463 2.962C11.321 3.104 11.25 3.28333 11.25 3.5C11.25 3.71667 11.321 3.89567 11.463 4.037C11.6043 4.179 11.7833 4.25 12 4.25Z" fill="url(#paint0_linear_15_37)"/>
</g>
<defs>
<linearGradient id="paint0_linear_15_37" x1="12" y1="1" x2="12" y2="21" gradientUnits="userSpaceOnUse">
<stop stop-color="#00FFFF"/>
<stop offset="1" stop-color="#00FFFF" stop-opacity="0.2"/>
</linearGradient>
</defs>
</svg>
