<svg width="24" height="24" viewBox="0 0 24 24" fill="none" xmlns="http://www.w3.org/2000/svg">
<path d="M8 2V5M16 2V5M3.5 9.09H20.5M19.21 15.77L15.67 19.31C15.53 19.45 15.4 19.71 15.37 19.9L15.18 21.25C15.11 21.74 15.45 22.08 15.94 22.01L17.29 21.82C17.48 21.79 17.75 21.66 17.88 21.52L21.42 17.98C22.03 17.37 22.32 16.66 21.42 15.76C20.53 14.87 19.82 15.16 19.21 15.77Z" stroke="#00FFFF" stroke-width="1.5" stroke-miterlimit="10" stroke-linecap="round" stroke-linejoin="round"/>
<path d="M18.7 16.28C19 17.36 19.84 18.2 20.92 18.5M12 22H8C4.5 22 3 20 3 17V8.5C3 5.5 4.5 3.5 8 3.5H16C19.5 3.5 21 5.5 21 8.5V12" stroke="#00FFFF" stroke-width="1.5" stroke-miterlimit="10" stroke-linecap="round" stroke-linejoin="round"/>
<path d="M11.995 13.7H12.005M8.29401 13.7H8.30401M8.29401 16.7H8.30401" stroke="white" stroke-width="2" stroke-linecap="round" stroke-linejoin="round"/>
</svg>
