<svg width="24" height="24" viewBox="0 0 24 24" fill="none" xmlns="http://www.w3.org/2000/svg">
<mask id="mask0_15_19" style="mask-type:alpha" maskUnits="userSpaceOnUse" x="0" y="0" width="24" height="24">
<rect width="24" height="24" fill="#D9D9D9"/>
</mask>
<g mask="url(#mask0_15_19)">
<path d="M7 22C6.46667 22 6.01267 21.8333 5.638 21.5C5.26267 21.1667 5.05 20.75 5 20.25L3 2H21L19 20.25C18.95 20.75 18.7377 21.1667 18.363 21.5C17.9877 21.8333 17.5333 22 17 22H7ZM5.9 10L7 20H17L18.1 10H5.9ZM5.65 8H18.35L18.75 4H5.25L5.65 8ZM12 19C12.8 19 13.5 18.725 14.1 18.175C14.7 17.625 15 16.95 15 16.15C15 15.4667 14.754 14.725 14.262 13.925C13.7707 13.125 13.0167 12.15 12 11C10.9833 12.15 10.2293 13.125 9.738 13.925C9.246 14.725 9 15.4667 9 16.15C9 16.95 9.3 17.625 9.9 18.175C10.5 18.725 11.2 19 12 19ZM12 17C11.7167 17 11.4793 16.904 11.288 16.712C11.096 16.5207 11 16.2833 11 16C11 15.8167 11.0917 15.5333 11.275 15.15C11.4583 14.7667 11.7 14.35 12 13.9C12.3 14.3667 12.5417 14.7873 12.725 15.162C12.9083 15.5373 13 15.8167 13 16C13 16.2833 12.9043 16.5207 12.713 16.712C12.521 16.904 12.2833 17 12 17Z" fill="url(#paint0_linear_15_19)"/>
</g>
<defs>
<linearGradient id="paint0_linear_15_19" x1="12" y1="2" x2="12" y2="22" gradientUnits="userSpaceOnUse">
<stop stop-color="#00FFFF"/>
<stop offset="1" stop-color="#00FFFF" stop-opacity="0.2"/>
</linearGradient>
</defs>
</svg>
