<svg width="92" height="79" viewBox="0 0 92 79" fill="none" xmlns="http://www.w3.org/2000/svg">
<circle cx="15" cy="14" r="13.9" fill="url(#paint0_linear_6_10)" stroke="#252525" stroke-width="0.2"/>
<circle cx="45" cy="14" r="13.9" fill="url(#paint1_linear_6_10)" stroke="#252525" stroke-width="0.2"/>
<circle cx="75" cy="14" r="13.85" fill="url(#paint2_linear_6_10)" stroke="#252525" stroke-width="0.3"/>
<path d="M13.9452 63.848C14.2672 63.848 14.5542 63.89 14.8062 63.974C15.0582 64.0533 15.2682 64.17 15.4362 64.324C15.6089 64.4733 15.7396 64.6553 15.8282 64.87C15.9169 65.08 15.9612 65.318 15.9612 65.584C15.9612 65.794 15.9286 66.004 15.8632 66.214C15.8026 66.424 15.6999 66.6153 15.5552 66.788C15.4152 66.9607 15.2286 67.1007 14.9952 67.208C14.7619 67.3107 14.4726 67.362 14.1272 67.362H13.3992V69H12.3842V63.848H13.9452ZM14.1202 66.382C14.2742 66.382 14.4026 66.3563 14.5052 66.305C14.6079 66.2537 14.6872 66.1883 14.7432 66.109C14.8039 66.0297 14.8459 65.948 14.8692 65.864C14.8972 65.7753 14.9112 65.6937 14.9112 65.619C14.9112 65.563 14.9019 65.493 14.8832 65.409C14.8692 65.3203 14.8366 65.2317 14.7852 65.143C14.7339 65.0543 14.6546 64.9797 14.5472 64.919C14.4446 64.8583 14.3046 64.828 14.1272 64.828H13.3992V66.382H14.1202ZM15.0722 67.012L16.3462 69H15.1632L13.8612 67.04L15.0722 67.012ZM18.3903 69.084C18.017 69.084 17.6997 69.014 17.4383 68.874C17.1817 68.734 16.9857 68.5403 16.8503 68.293C16.715 68.0457 16.6473 67.761 16.6473 67.439C16.6473 67.131 16.7267 66.8533 16.8853 66.606C17.044 66.3587 17.2563 66.1627 17.5223 66.018C17.7883 65.8687 18.0847 65.794 18.4113 65.794C18.85 65.794 19.2093 65.9223 19.4893 66.179C19.774 66.431 19.9583 66.7973 20.0423 67.278L17.6623 68.034L17.4453 67.502L19.1673 66.921L18.9643 67.012C18.927 66.8907 18.8593 66.7857 18.7613 66.697C18.668 66.6037 18.5257 66.557 18.3343 66.557C18.1897 66.557 18.0613 66.592 17.9493 66.662C17.842 66.7273 17.758 66.823 17.6973 66.949C17.6413 67.0703 17.6133 67.215 17.6133 67.383C17.6133 67.5743 17.6483 67.7353 17.7183 67.866C17.7883 67.992 17.884 68.0877 18.0053 68.153C18.1267 68.2183 18.262 68.251 18.4113 68.251C18.5187 68.251 18.6213 68.2323 18.7193 68.195C18.822 68.1577 18.9223 68.1087 19.0203 68.048L19.4543 68.776C19.291 68.8693 19.1137 68.944 18.9223 69C18.7357 69.056 18.5583 69.084 18.3903 69.084ZM22.3365 70.54C22.0612 70.54 21.8278 70.5073 21.6365 70.442C21.4498 70.3767 21.2912 70.2973 21.1605 70.204C21.0298 70.1107 20.9132 70.022 20.8105 69.938L21.3845 69.266C21.4918 69.364 21.6155 69.4573 21.7555 69.546C21.9002 69.6393 22.0892 69.686 22.3225 69.686C22.4765 69.686 22.6188 69.658 22.7495 69.602C22.8848 69.5507 22.9922 69.4737 23.0715 69.371C23.1555 69.2683 23.1975 69.14 23.1975 68.986V68.314L23.2325 68.489C23.1578 68.6477 23.0225 68.7877 22.8265 68.909C22.6305 69.0257 22.3738 69.084 22.0565 69.084C21.7812 69.084 21.5245 69.014 21.2865 68.874C21.0532 68.7293 20.8665 68.5357 20.7265 68.293C20.5865 68.0457 20.5165 67.7657 20.5165 67.453C20.5165 67.131 20.5912 66.8463 20.7405 66.599C20.8898 66.347 21.0835 66.1487 21.3215 66.004C21.5595 65.8593 21.8115 65.787 22.0775 65.787C22.3435 65.787 22.5722 65.8267 22.7635 65.906C22.9595 65.9807 23.1065 66.074 23.2045 66.186L23.1695 66.277L23.2745 65.941H24.1775V69C24.1775 69.2987 24.0935 69.5623 23.9255 69.791C23.7575 70.0243 23.5335 70.2063 23.2535 70.337C22.9782 70.4723 22.6725 70.54 22.3365 70.54ZM21.5035 67.425C21.5035 67.5883 21.5408 67.7353 21.6155 67.866C21.6902 67.9967 21.7905 68.0993 21.9165 68.174C22.0472 68.2487 22.1918 68.286 22.3505 68.286C22.4858 68.286 22.6048 68.2697 22.7075 68.237C22.8148 68.1997 22.9082 68.1483 22.9875 68.083C23.0715 68.013 23.1415 67.9267 23.1975 67.824V67.075C23.1555 66.9723 23.0925 66.886 23.0085 66.816C22.9245 66.7413 22.8265 66.6853 22.7145 66.648C22.6072 66.606 22.4858 66.585 22.3505 66.585C22.1918 66.585 22.0472 66.6223 21.9165 66.697C21.7905 66.767 21.6902 66.865 21.6155 66.991C21.5408 67.117 21.5035 67.2617 21.5035 67.425ZM25.1842 65.941H26.1642V69H25.1842V65.941ZM25.1632 64.856C25.1632 64.7113 25.2192 64.5923 25.3312 64.499C25.4478 64.4057 25.5715 64.359 25.7022 64.359C25.8328 64.359 25.9518 64.4057 26.0592 64.499C26.1712 64.5923 26.2272 64.7113 26.2272 64.856C26.2272 65.0007 26.1712 65.1197 26.0592 65.213C25.9518 65.3017 25.8328 65.346 25.7022 65.346C25.5715 65.346 25.4478 65.3017 25.3312 65.213C25.2192 65.1197 25.1632 65.0007 25.1632 64.856ZM28.1674 69.063C27.9154 69.063 27.6798 69.0187 27.4604 68.93C27.2458 68.8413 27.0638 68.7177 26.9144 68.559L27.3204 68.02C27.4698 68.1553 27.6074 68.2533 27.7334 68.314C27.8641 68.37 27.9808 68.398 28.0834 68.398C28.1628 68.398 28.2328 68.391 28.2934 68.377C28.3588 68.3583 28.4101 68.3327 28.4474 68.3C28.4848 68.2627 28.5034 68.216 28.5034 68.16C28.5034 68.0807 28.4708 68.0177 28.4054 67.971C28.3448 67.9243 28.2654 67.887 28.1674 67.859C28.0694 67.8263 27.9644 67.7937 27.8524 67.761C27.5724 67.6723 27.3694 67.544 27.2434 67.376C27.1221 67.2033 27.0614 67.0167 27.0614 66.816C27.0614 66.662 27.1011 66.508 27.1804 66.354C27.2644 66.1953 27.3951 66.0647 27.5724 65.962C27.7544 65.8547 27.9878 65.801 28.2724 65.801C28.5291 65.801 28.7461 65.8267 28.9234 65.878C29.1008 65.9293 29.2688 66.0133 29.4274 66.13L29.0564 66.704C28.9678 66.634 28.8674 66.5757 28.7554 66.529C28.6481 66.4777 28.5478 66.4497 28.4544 66.445C28.3704 66.4403 28.2981 66.4497 28.2374 66.473C28.1814 66.4963 28.1371 66.5267 28.1044 66.564C28.0718 66.6013 28.0554 66.641 28.0554 66.683C28.0508 66.7717 28.0834 66.8417 28.1534 66.893C28.2281 66.9443 28.3214 66.984 28.4334 67.012C28.5454 67.04 28.6551 67.0727 28.7624 67.11C28.9118 67.1567 29.0401 67.2197 29.1474 67.299C29.2548 67.3783 29.3364 67.474 29.3924 67.586C29.4531 67.6933 29.4834 67.824 29.4834 67.978C29.4834 68.1647 29.4344 68.342 29.3364 68.51C29.2431 68.6733 29.0984 68.8063 28.9024 68.909C28.7111 69.0117 28.4661 69.063 28.1674 69.063ZM30.5913 64.597H31.5713V65.927H32.3133V66.69H31.5713V69H30.5913V66.69H30.1153V65.927H30.5913V64.597ZM33.9412 65.941L34.0322 66.781L34.0112 66.655C34.0998 66.473 34.2212 66.319 34.3752 66.193C34.5292 66.0623 34.6808 65.962 34.8302 65.892C34.9842 65.822 35.1008 65.787 35.1802 65.787L35.1312 66.767C34.9025 66.739 34.7065 66.7763 34.5432 66.879C34.3798 66.9817 34.2538 67.117 34.1652 67.285C34.0765 67.453 34.0322 67.6257 34.0322 67.803V69H33.0592V65.941H33.9412ZM35.5556 67.432C35.5556 67.1193 35.6279 66.8393 35.7726 66.592C35.9219 66.3447 36.1296 66.151 36.3956 66.011C36.6616 65.8663 36.9672 65.794 37.3126 65.794C37.6626 65.794 37.9659 65.8663 38.2226 66.011C38.4792 66.151 38.6752 66.3447 38.8106 66.592C38.9506 66.8393 39.0206 67.1193 39.0206 67.432C39.0206 67.7447 38.9506 68.027 38.8106 68.279C38.6752 68.5263 38.4792 68.7223 38.2226 68.867C37.9659 69.0117 37.6579 69.084 37.2986 69.084C36.9626 69.084 36.6616 69.0187 36.3956 68.888C36.1342 68.7573 35.9289 68.5683 35.7796 68.321C35.6302 68.0737 35.5556 67.7773 35.5556 67.432ZM36.5426 67.439C36.5426 67.5977 36.5752 67.7423 36.6406 67.873C36.7059 67.999 36.7946 68.0993 36.9066 68.174C37.0186 68.2487 37.1446 68.286 37.2846 68.286C37.4386 68.286 37.5716 68.2487 37.6836 68.174C37.7956 68.0993 37.8819 67.999 37.9426 67.873C38.0032 67.7423 38.0336 67.5977 38.0336 67.439C38.0336 67.2757 38.0032 67.131 37.9426 67.005C37.8819 66.879 37.7956 66.7787 37.6836 66.704C37.5716 66.6293 37.4386 66.592 37.2846 66.592C37.1446 66.592 37.0186 66.6293 36.9066 66.704C36.7946 66.7787 36.7059 66.879 36.6406 67.005C36.5752 67.131 36.5426 67.2757 36.5426 67.439ZM43.3149 69.084C43.0303 69.084 42.7759 69.0187 42.5519 68.888C42.3279 68.7527 42.1506 68.559 42.0199 68.307C41.8939 68.055 41.8309 67.7563 41.8309 67.411C41.8309 67.0657 41.9009 66.7717 42.0409 66.529C42.1809 66.2863 42.3723 66.102 42.6149 65.976C42.8576 65.85 43.1329 65.787 43.4409 65.787C43.6369 65.787 43.8236 65.8173 44.0009 65.878C44.1829 65.9387 44.3346 66.032 44.4559 66.158V66.466V63.477H45.4289V69H44.4489V68.405L44.5259 68.615C44.3673 68.7457 44.1899 68.8577 43.9939 68.951C43.7979 69.0397 43.5716 69.084 43.3149 69.084ZM43.6369 68.258C43.7676 68.258 43.8819 68.2417 43.9799 68.209C44.0826 68.1717 44.1713 68.1203 44.2459 68.055C44.3253 67.985 44.3929 67.8987 44.4489 67.796V67.047C44.4116 66.9443 44.3533 66.858 44.2739 66.788C44.1993 66.7133 44.1059 66.6573 43.9939 66.62C43.8866 66.578 43.7676 66.557 43.6369 66.557C43.4923 66.557 43.3569 66.5943 43.2309 66.669C43.1096 66.739 43.0116 66.837 42.9369 66.963C42.8623 67.089 42.8249 67.2337 42.8249 67.397C42.8249 67.5603 42.8623 67.7073 42.9369 67.838C43.0116 67.9687 43.1096 68.0713 43.2309 68.146C43.3569 68.2207 43.4923 68.258 43.6369 68.258ZM47.9421 69.084C47.5688 69.084 47.2514 69.014 46.9901 68.874C46.7334 68.734 46.5374 68.5403 46.4021 68.293C46.2668 68.0457 46.1991 67.761 46.1991 67.439C46.1991 67.131 46.2784 66.8533 46.4371 66.606C46.5958 66.3587 46.8081 66.1627 47.0741 66.018C47.3401 65.8687 47.6364 65.794 47.9631 65.794C48.4018 65.794 48.7611 65.9223 49.0411 66.179C49.3258 66.431 49.5101 66.7973 49.5941 67.278L47.2141 68.034L46.9971 67.502L48.7191 66.921L48.5161 67.012C48.4788 66.8907 48.4111 66.7857 48.3131 66.697C48.2198 66.6037 48.0774 66.557 47.8861 66.557C47.7414 66.557 47.6131 66.592 47.5011 66.662C47.3938 66.7273 47.3098 66.823 47.2491 66.949C47.1931 67.0703 47.1651 67.215 47.1651 67.383C47.1651 67.5743 47.2001 67.7353 47.2701 67.866C47.3401 67.992 47.4358 68.0877 47.5571 68.153C47.6784 68.2183 47.8138 68.251 47.9631 68.251C48.0704 68.251 48.1731 68.2323 48.2711 68.195C48.3738 68.1577 48.4741 68.1087 48.5721 68.048L49.0061 68.776C48.8428 68.8693 48.6654 68.944 48.4741 69C48.2874 69.056 48.1101 69.084 47.9421 69.084ZM57.0766 63.848V69H56.0616V66.907H53.7586V69H52.7436V63.848H53.7586V65.927H56.0616V63.848H57.0766ZM59.5308 69.084C59.2461 69.084 58.9871 69.028 58.7538 68.916C58.5251 68.7993 58.3431 68.622 58.2078 68.384C58.0724 68.146 58.0048 67.8427 58.0048 67.474C58.0048 67.1287 58.0748 66.83 58.2148 66.578C58.3548 66.326 58.5391 66.1323 58.7678 65.997C58.9964 65.857 59.2391 65.787 59.4958 65.787C59.7991 65.787 60.0278 65.8383 60.1818 65.941C60.3404 66.039 60.4711 66.1487 60.5738 66.27L60.5318 66.389L60.6228 65.941H61.5328V69H60.5528V68.335L60.6298 68.545C60.6204 68.545 60.5924 68.573 60.5458 68.629C60.4991 68.6803 60.4291 68.7433 60.3358 68.818C60.2471 68.888 60.1351 68.9487 59.9998 69C59.8691 69.056 59.7128 69.084 59.5308 69.084ZM59.8108 68.286C59.9274 68.286 60.0324 68.2697 60.1258 68.237C60.2191 68.1997 60.3008 68.1483 60.3708 68.083C60.4408 68.013 60.5014 67.9267 60.5528 67.824V67.075C60.5154 66.9723 60.4594 66.886 60.3848 66.816C60.3101 66.7413 60.2214 66.6853 60.1188 66.648C60.0161 66.606 59.9018 66.585 59.7758 66.585C59.6358 66.585 59.5051 66.6223 59.3838 66.697C59.2671 66.767 59.1738 66.865 59.1038 66.991C59.0338 67.117 58.9988 67.2617 58.9988 67.425C58.9988 67.5883 59.0361 67.7353 59.1108 67.866C59.1854 67.9967 59.2834 68.0993 59.4048 68.174C59.5308 68.2487 59.6661 68.286 59.8108 68.286ZM61.0568 64.492L60.0208 65.437H59.4258L59.9718 64.492H61.0568ZM64.5516 69.084C64.2949 69.084 64.0779 69.042 63.9006 68.958C63.7279 68.8693 63.5762 68.755 63.4456 68.615L63.5226 68.405V69H62.5426V63.477H63.5156V66.466V66.151C63.6369 66.0483 63.7979 65.962 63.9986 65.892C64.1992 65.822 64.4279 65.787 64.6846 65.787C64.9506 65.787 65.1932 65.85 65.4126 65.976C65.6319 66.102 65.8069 66.2863 65.9376 66.529C66.0729 66.767 66.1406 67.0587 66.1406 67.404C66.1406 67.7493 66.0659 68.048 65.9166 68.3C65.7719 68.552 65.5782 68.7457 65.3356 68.881C65.0929 69.0163 64.8316 69.084 64.5516 69.084ZM64.3346 68.258C64.4792 68.258 64.6122 68.2207 64.7336 68.146C64.8596 68.0713 64.9599 67.9687 65.0346 67.838C65.1092 67.7073 65.1466 67.5603 65.1466 67.397C65.1466 67.2337 65.1092 67.089 65.0346 66.963C64.9599 66.837 64.8596 66.739 64.7336 66.669C64.6122 66.5943 64.4792 66.557 64.3346 66.557C64.2086 66.557 64.0896 66.578 63.9776 66.62C63.8702 66.6573 63.7769 66.7133 63.6976 66.788C63.6229 66.858 63.5646 66.9443 63.5226 67.047V67.796C63.5786 67.8987 63.6439 67.985 63.7186 68.055C63.7979 68.1203 63.8889 68.1717 63.9916 68.209C64.0942 68.2417 64.2086 68.258 64.3346 68.258ZM66.9107 65.941H67.8907V69H66.9107V65.941ZM66.8897 64.856C66.8897 64.7113 66.9457 64.5923 67.0577 64.499C67.1744 64.4057 67.2981 64.359 67.4287 64.359C67.5594 64.359 67.6784 64.4057 67.7857 64.499C67.8977 64.5923 67.9537 64.7113 67.9537 64.856C67.9537 65.0007 67.8977 65.1197 67.7857 65.213C67.6784 65.3017 67.5594 65.346 67.4287 65.346C67.2981 65.346 67.1744 65.3017 67.0577 65.213C66.9457 65.1197 66.8897 65.0007 66.8897 64.856ZM69.187 64.597H70.167V65.927H70.909V66.69H70.167V69H69.187V66.69H68.711V65.927H69.187V64.597ZM71.4169 67.432C71.4169 67.1193 71.4892 66.8393 71.6339 66.592C71.7832 66.3447 71.9909 66.151 72.2569 66.011C72.5229 65.8663 72.8285 65.794 73.1739 65.794C73.5239 65.794 73.8272 65.8663 74.0839 66.011C74.3405 66.151 74.5365 66.3447 74.6719 66.592C74.8119 66.8393 74.8819 67.1193 74.8819 67.432C74.8819 67.7447 74.8119 68.027 74.6719 68.279C74.5365 68.5263 74.3405 68.7223 74.0839 68.867C73.8272 69.0117 73.5192 69.084 73.1599 69.084C72.8239 69.084 72.5229 69.0187 72.2569 68.888C71.9955 68.7573 71.7902 68.5683 71.6409 68.321C71.4915 68.0737 71.4169 67.7773 71.4169 67.432ZM72.4039 67.439C72.4039 67.5977 72.4365 67.7423 72.5019 67.873C72.5672 67.999 72.6559 68.0993 72.7679 68.174C72.8799 68.2487 73.0059 68.286 73.1459 68.286C73.2999 68.286 73.4329 68.2487 73.5449 68.174C73.6569 68.0993 73.7432 67.999 73.8039 67.873C73.8645 67.7423 73.8949 67.5977 73.8949 67.439C73.8949 67.2757 73.8645 67.131 73.8039 67.005C73.7432 66.879 73.6569 66.7787 73.5449 66.704C73.4329 66.6293 73.2999 66.592 73.1459 66.592C73.0059 66.592 72.8799 66.6293 72.7679 66.704C72.6559 66.7787 72.5672 66.879 72.5019 67.005C72.4365 67.131 72.4039 67.2757 72.4039 67.439ZM76.6479 69.063C76.3959 69.063 76.1602 69.0187 75.9409 68.93C75.7262 68.8413 75.5442 68.7177 75.3949 68.559L75.8009 68.02C75.9502 68.1553 76.0879 68.2533 76.2139 68.314C76.3446 68.37 76.4612 68.398 76.5639 68.398C76.6432 68.398 76.7132 68.391 76.7739 68.377C76.8392 68.3583 76.8906 68.3327 76.9279 68.3C76.9652 68.2627 76.9839 68.216 76.9839 68.16C76.9839 68.0807 76.9512 68.0177 76.8859 67.971C76.8252 67.9243 76.7459 67.887 76.6479 67.859C76.5499 67.8263 76.4449 67.7937 76.3329 67.761C76.0529 67.6723 75.8499 67.544 75.7239 67.376C75.6026 67.2033 75.5419 67.0167 75.5419 66.816C75.5419 66.662 75.5816 66.508 75.6609 66.354C75.7449 66.1953 75.8756 66.0647 76.0529 65.962C76.2349 65.8547 76.4682 65.801 76.7529 65.801C77.0096 65.801 77.2266 65.8267 77.4039 65.878C77.5812 65.9293 77.7492 66.0133 77.9079 66.13L77.5369 66.704C77.4482 66.634 77.3479 66.5757 77.2359 66.529C77.1286 66.4777 77.0282 66.4497 76.9349 66.445C76.8509 66.4403 76.7786 66.4497 76.7179 66.473C76.6619 66.4963 76.6176 66.5267 76.5849 66.564C76.5522 66.6013 76.5359 66.641 76.5359 66.683C76.5312 66.7717 76.5639 66.8417 76.6339 66.893C76.7086 66.9443 76.8019 66.984 76.9139 67.012C77.0259 67.04 77.1356 67.0727 77.2429 67.11C77.3922 67.1567 77.5206 67.2197 77.6279 67.299C77.7352 67.3783 77.8169 67.474 77.8729 67.586C77.9336 67.6933 77.9639 67.824 77.9639 67.978C77.9639 68.1647 77.9149 68.342 77.8169 68.51C77.7236 68.6733 77.5789 68.8063 77.3829 68.909C77.1916 69.0117 76.9466 69.063 76.6479 69.063Z" fill="white"/>
<g filter="url(#filter0_d_6_10)">
<path d="M24.2543 35.448V59H19.6143V49.432H9.08625V59H4.44625V35.448H9.08625V44.952H19.6143V35.448H24.2543ZM35.4733 59.384C34.1719 59.384 32.9879 59.128 31.9213 58.616C30.8759 58.0827 30.0439 57.272 29.4253 56.184C28.8066 55.096 28.4973 53.7093 28.4973 52.024C28.4973 50.4453 28.8173 49.08 29.4573 47.928C30.0973 46.776 30.9399 45.8907 31.9852 45.272C33.0306 44.632 34.1399 44.312 35.3133 44.312C36.6999 44.312 37.7453 44.5467 38.4493 45.016C39.1746 45.464 39.7719 45.9653 40.2413 46.52L40.0493 47.064L40.4653 45.016H44.6253V59H40.1453V55.96L40.4973 56.92C40.4546 56.92 40.3266 57.048 40.1133 57.304C39.8999 57.5387 39.5799 57.8267 39.1533 58.168C38.7479 58.488 38.2359 58.7653 37.6173 59C37.0199 59.256 36.3053 59.384 35.4733 59.384ZM36.7533 55.736C37.2866 55.736 37.7666 55.6613 38.1933 55.512C38.6199 55.3413 38.9933 55.1067 39.3133 54.808C39.6333 54.488 39.9106 54.0933 40.1453 53.624V50.2C39.9746 49.7307 39.7186 49.336 39.3773 49.016C39.0359 48.6747 38.6306 48.4187 38.1613 48.248C37.6919 48.056 37.1693 47.96 36.5933 47.96C35.9533 47.96 35.3559 48.1307 34.8013 48.472C34.2679 48.792 33.8413 49.24 33.5213 49.816C33.2013 50.392 33.0413 51.0533 33.0413 51.8C33.0413 52.5467 33.2119 53.2187 33.5533 53.816C33.8946 54.4133 34.3426 54.8827 34.8973 55.224C35.4733 55.5653 36.0919 55.736 36.7533 55.736ZM58.4255 59.384C57.2522 59.384 56.2602 59.192 55.4495 58.808C54.6602 58.4027 53.9668 57.88 53.3695 57.24L53.7215 56.28V59H49.2415V33.752H53.6895V47.416V45.976C54.2442 45.5067 54.9802 45.112 55.8975 44.792C56.8148 44.472 57.8602 44.312 59.0335 44.312C60.2495 44.312 61.3588 44.6 62.3615 45.176C63.3642 45.752 64.1642 46.5947 64.7615 47.704C65.3802 48.792 65.6895 50.1253 65.6895 51.704C65.6895 53.2827 65.3482 54.648 64.6655 55.8C64.0042 56.952 63.1188 57.8373 62.0095 58.456C60.9002 59.0747 59.7055 59.384 58.4255 59.384ZM57.4335 55.608C58.0948 55.608 58.7028 55.4373 59.2575 55.096C59.8335 54.7547 60.2922 54.2853 60.6335 53.688C60.9748 53.0907 61.1455 52.4187 61.1455 51.672C61.1455 50.9253 60.9748 50.264 60.6335 49.688C60.2922 49.112 59.8335 48.664 59.2575 48.344C58.7028 48.0027 58.0948 47.832 57.4335 47.832C56.8575 47.832 56.3135 47.928 55.8015 48.12C55.3108 48.2907 54.8842 48.5467 54.5215 48.888C54.1802 49.208 53.9135 49.6027 53.7215 50.072V53.496C53.9775 53.9653 54.2762 54.36 54.6175 54.68C54.9802 54.9787 55.3962 55.2133 55.8655 55.384C56.3348 55.5333 56.8575 55.608 57.4335 55.608ZM69.2103 45.016H73.6903V59H69.2103V45.016ZM69.1143 40.056C69.1143 39.3947 69.3703 38.8507 69.8823 38.424C70.4156 37.9973 70.9809 37.784 71.5783 37.784C72.1756 37.784 72.7196 37.9973 73.2103 38.424C73.7223 38.8507 73.9783 39.3947 73.9783 40.056C73.9783 40.7173 73.7223 41.2613 73.2103 41.688C72.7196 42.0933 72.1756 42.296 71.5783 42.296C70.9809 42.296 70.4156 42.0933 69.8823 41.688C69.3703 41.2613 69.1143 40.7173 69.1143 40.056ZM79.616 38.872H84.096V44.952H87.488V48.44H84.096V59H79.616V48.44H77.44V44.952H79.616V38.872Z" fill="url(#paint3_linear_6_10)" shape-rendering="crispEdges"/>
<path d="M24.2543 35.448H24.7543V34.948H24.2543V35.448ZM24.2543 59V59.5H24.7543V59H24.2543ZM19.6143 59H19.1143V59.5H19.6143V59ZM19.6143 49.432H20.1143V48.932H19.6143V49.432ZM9.08625 49.432V48.932H8.58625V49.432H9.08625ZM9.08625 59V59.5H9.58625V59H9.08625ZM4.44625 59H3.94625V59.5H4.44625V59ZM4.44625 35.448V34.948H3.94625V35.448H4.44625ZM9.08625 35.448H9.58625V34.948H9.08625V35.448ZM9.08625 44.952H8.58625V45.452H9.08625V44.952ZM19.6143 44.952V45.452H20.1143V44.952H19.6143ZM19.6143 35.448V34.948H19.1143V35.448H19.6143ZM23.7543 35.448V59H24.7543V35.448H23.7543ZM24.2543 58.5H19.6143V59.5H24.2543V58.5ZM20.1143 59V49.432H19.1143V59H20.1143ZM19.6143 48.932H9.08625V49.932H19.6143V48.932ZM8.58625 49.432V59H9.58625V49.432H8.58625ZM9.08625 58.5H4.44625V59.5H9.08625V58.5ZM4.94625 59V35.448H3.94625V59H4.94625ZM4.44625 35.948H9.08625V34.948H4.44625V35.948ZM8.58625 35.448V44.952H9.58625V35.448H8.58625ZM9.08625 45.452H19.6143V44.452H9.08625V45.452ZM20.1143 44.952V35.448H19.1143V44.952H20.1143ZM19.6143 35.948H24.2543V34.948H19.6143V35.948ZM31.9213 58.616L31.6939 59.0615L31.7049 59.0668L31.9213 58.616ZM31.9852 45.272L32.2399 45.7023L32.2463 45.6984L31.9852 45.272ZM38.4493 45.016L38.1719 45.432L38.1791 45.4368L38.1865 45.4414L38.4493 45.016ZM40.2413 46.52L40.7127 46.6864L40.8082 46.416L40.6229 46.197L40.2413 46.52ZM40.0493 47.064L39.5593 46.9645L40.5207 47.2304L40.0493 47.064ZM40.4653 45.016V44.516H40.0566L39.9753 44.9165L40.4653 45.016ZM44.6253 45.016H45.1253V44.516H44.6253V45.016ZM44.6253 59V59.5H45.1253V59H44.6253ZM40.1453 59H39.6453V59.5H40.1453V59ZM40.1453 55.96L40.6147 55.7879L39.6453 55.96H40.1453ZM40.4973 56.92V57.42H41.2131L40.9667 56.7479L40.4973 56.92ZM40.1133 57.304L40.4832 57.6403L40.4905 57.6324L40.4974 57.6241L40.1133 57.304ZM39.1533 58.168L39.4631 58.5604L39.4656 58.5584L39.1533 58.168ZM37.6173 59L37.4399 58.5325L37.43 58.5363L37.4203 58.5404L37.6173 59ZM38.1933 55.512L38.3584 55.9839L38.3688 55.9803L38.3789 55.9762L38.1933 55.512ZM39.3133 54.808L39.6544 55.1735L39.6607 55.1676L39.6668 55.1616L39.3133 54.808ZM40.1453 53.624L40.5925 53.8476L40.6453 53.742V53.624H40.1453ZM40.1453 50.2H40.6453V50.1119L40.6151 50.0291L40.1453 50.2ZM39.3773 49.016L39.0237 49.3696L39.0294 49.3753L39.0353 49.3808L39.3773 49.016ZM38.1613 48.248L37.9719 48.7108L37.9811 48.7145L37.9904 48.7179L38.1613 48.248ZM34.8013 48.472L35.0585 48.9008L35.0633 48.8978L34.8013 48.472ZM33.5213 49.816L33.9583 50.0588L33.9583 50.0588L33.5213 49.816ZM33.5533 53.816L33.1191 54.0641L33.1191 54.0641L33.5533 53.816ZM34.8973 55.224L34.6352 55.6499L34.6423 55.6541L34.8973 55.224ZM35.4733 58.884C34.2392 58.884 33.1302 58.6417 32.1376 58.1652L31.7049 59.0668C32.8456 59.6143 34.1046 59.884 35.4733 59.884V58.884ZM32.1485 58.1706C31.196 57.6847 30.4336 56.9459 29.8599 55.9368L28.9906 56.4312C29.6542 57.5981 30.5558 58.4807 31.694 59.0614L32.1485 58.1706ZM29.8599 55.9368C29.2964 54.9458 28.9973 53.6516 28.9973 52.024H27.9973C27.9973 53.7671 28.3168 55.2462 28.9906 56.4312L29.8599 55.9368ZM28.9973 52.024C28.9973 50.5135 29.303 49.2351 29.8943 48.1708L29.0202 47.6852C28.3315 48.9249 27.9973 50.3771 27.9973 52.024H28.9973ZM29.8943 48.1708C30.495 47.0896 31.2774 46.272 32.2399 45.7023L31.7306 44.8417C30.6025 45.5094 29.6995 46.4624 29.0202 47.6852L29.8943 48.1708ZM32.2463 45.6984C33.2167 45.1043 34.2363 44.812 35.3133 44.812V43.812C34.0436 43.812 32.8444 44.1597 31.7242 44.8456L32.2463 45.6984ZM35.3133 44.812C36.6583 44.812 37.5873 45.0423 38.1719 45.432L38.7266 44.6C37.9032 44.0511 36.7416 43.812 35.3133 43.812V44.812ZM38.1865 45.4414C38.8746 45.8664 39.4295 46.3348 39.8596 46.843L40.6229 46.197C40.1143 45.5959 39.4746 45.0616 38.712 44.5906L38.1865 45.4414ZM39.7698 46.3536L39.5778 46.8976L40.5207 47.2304L40.7127 46.6864L39.7698 46.3536ZM40.5392 47.1635L40.9552 45.1155L39.9753 44.9165L39.5593 46.9645L40.5392 47.1635ZM40.4653 45.516H44.6253V44.516H40.4653V45.516ZM44.1253 45.016V59H45.1253V45.016H44.1253ZM44.6253 58.5H40.1453V59.5H44.6253V58.5ZM40.6453 59V55.96H39.6453V59H40.6453ZM39.6758 56.1321L40.0278 57.0921L40.9667 56.7479L40.6147 55.7879L39.6758 56.1321ZM40.4973 56.42C40.3786 56.42 40.2899 56.4606 40.2536 56.4788C40.2092 56.501 40.1735 56.5258 40.1493 56.544C40.1004 56.5806 40.0546 56.6235 40.0157 56.6624C39.9356 56.7425 39.8389 56.8522 39.7291 56.9839L40.4974 57.6241C40.6009 57.4998 40.6749 57.4175 40.7228 57.3696C40.7479 57.3445 40.7554 57.3394 40.7493 57.344C40.7464 57.3462 40.7293 57.359 40.7009 57.3732C40.686 57.3806 40.6626 57.3912 40.6319 57.4004C40.602 57.4094 40.5555 57.42 40.4973 57.42V56.42ZM39.7433 56.9677C39.5559 57.1738 39.2594 57.4428 38.8409 57.7776L39.4656 58.5584C39.9004 58.2106 40.2439 57.9036 40.4832 57.6403L39.7433 56.9677ZM38.8434 57.7756C38.4876 58.0565 38.0236 58.3111 37.4399 58.5325L37.7946 59.4675C38.4483 59.2195 39.0082 58.9195 39.4631 58.5604L38.8434 57.7756ZM37.4203 58.5404C36.9 58.7634 36.2558 58.884 35.4733 58.884V59.884C36.3547 59.884 37.1398 59.7486 37.8142 59.4596L37.4203 58.5404ZM36.7533 56.236C37.333 56.236 37.8701 56.1548 38.3584 55.9839L38.0281 55.0401C37.6631 55.1678 37.2402 55.236 36.7533 55.236V56.236ZM38.3789 55.9762C38.8602 55.7837 39.2869 55.5165 39.6544 55.1735L38.9721 54.4425C38.6996 54.6968 38.3796 54.8989 38.0076 55.0478L38.3789 55.9762ZM39.6668 55.1616C40.0303 54.798 40.3375 54.3575 40.5925 53.8476L39.698 53.4004C39.4837 53.8292 39.2362 54.178 38.9597 54.4544L39.6668 55.1616ZM40.6453 53.624V50.2H39.6453V53.624H40.6453ZM40.6151 50.0291C40.4195 49.4911 40.1217 49.0285 39.7192 48.6512L39.0353 49.3808C39.3155 49.6435 39.5297 49.9702 39.6754 50.3709L40.6151 50.0291ZM39.7308 48.6624C39.336 48.2676 38.8677 47.9729 38.3321 47.7781L37.9904 48.7179C38.3935 48.8645 38.7358 49.0817 39.0237 49.3696L39.7308 48.6624ZM38.3506 47.7852C37.8135 47.5655 37.2254 47.46 36.5933 47.46V48.46C37.1131 48.46 37.5703 48.5465 37.9719 48.7108L38.3506 47.7852ZM36.5933 47.46C35.859 47.46 35.1712 47.6572 34.5392 48.0462L35.0633 48.8978C35.5406 48.6041 36.0475 48.46 36.5933 48.46V47.46ZM34.544 48.0433C33.9309 48.4111 33.4441 48.9252 33.0842 49.5732L33.9583 50.0588C34.2384 49.5548 34.6049 49.1729 35.0585 48.9007L34.544 48.0433ZM33.0842 49.5732C32.7177 50.2329 32.5413 50.9798 32.5413 51.8H33.5413C33.5413 51.1268 33.6848 50.5511 33.9583 50.0588L33.0842 49.5732ZM32.5413 51.8C32.5413 52.626 32.731 53.3848 33.1191 54.0641L33.9874 53.5679C33.6929 53.0525 33.5413 52.4673 33.5413 51.8H32.5413ZM33.1191 54.0641C33.4996 54.7299 34.0051 55.2621 34.6352 55.6498L35.1593 54.7982C34.68 54.5032 34.2896 54.0968 33.9874 53.5679L33.1191 54.0641ZM34.6423 55.6541C35.2945 56.0406 36.0011 56.236 36.7533 56.236V55.236C36.1828 55.236 35.652 55.0901 35.1522 54.7939L34.6423 55.6541ZM55.4495 58.808L55.2211 59.2528L55.2282 59.2564L55.2355 59.2599L55.4495 58.808ZM53.3695 57.24L52.9001 57.0679L52.7942 57.3565L53.004 57.5812L53.3695 57.24ZM53.7215 56.28H54.2215L53.2521 56.1079L53.7215 56.28ZM53.7215 59V59.5H54.2215V59H53.7215ZM49.2415 59H48.7415V59.5H49.2415V59ZM49.2415 33.752V33.252H48.7415V33.752H49.2415ZM53.6895 33.752H54.1895V33.252H53.6895V33.752ZM53.6895 45.976L53.3665 45.5943L53.1895 45.7441V45.976H53.6895ZM55.8975 44.792L55.7328 44.3199L55.7328 44.3199L55.8975 44.792ZM62.3615 45.176L62.1124 45.6096L62.1124 45.6096L62.3615 45.176ZM64.7615 47.704L64.3211 47.9411L64.3269 47.9512L64.7615 47.704ZM64.6655 55.8L64.2353 55.5451L64.2319 55.5511L64.6655 55.8ZM62.0095 58.456L62.253 58.8927L62.0095 58.456ZM59.2575 55.096L59.0026 54.6658L58.9955 54.6702L59.2575 55.096ZM59.2575 48.344L58.9955 48.7698L59.0049 48.7757L59.0147 48.7811L59.2575 48.344ZM55.8015 48.12L55.9658 48.5924L55.9771 48.5882L55.8015 48.12ZM54.5215 48.888L54.8635 49.2528L54.8642 49.2521L54.5215 48.888ZM53.7215 50.072L53.2587 49.8827L53.2215 49.9737V50.072H53.7215ZM53.7215 53.496H53.2215V53.6235L53.2826 53.7354L53.7215 53.496ZM54.6175 54.68L54.2755 55.0448L54.2872 55.0558L54.2996 55.066L54.6175 54.68ZM55.8655 55.384L55.6946 55.8539L55.7042 55.8574L55.7139 55.8605L55.8655 55.384ZM58.4255 58.884C57.3043 58.884 56.39 58.7002 55.6635 58.3561L55.2355 59.2599C56.1303 59.6838 57.2 59.884 58.4255 59.884V58.884ZM55.6779 58.3632C54.9392 57.9839 54.2924 57.4961 53.735 56.8988L53.004 57.5812C53.6412 58.2639 54.3811 58.8214 55.2211 59.2528L55.6779 58.3632ZM53.8389 57.4121L54.1909 56.4521L53.2521 56.1079L52.9001 57.0679L53.8389 57.4121ZM53.2215 56.28V59H54.2215V56.28H53.2215ZM53.7215 58.5H49.2415V59.5H53.7215V58.5ZM49.7415 59V33.752H48.7415V59H49.7415ZM49.2415 34.252H53.6895V33.252H49.2415V34.252ZM53.1895 33.752V47.416H54.1895V33.752H53.1895ZM54.1895 47.416V45.976H53.1895V47.416H54.1895ZM54.0125 46.3577C54.5075 45.9388 55.1844 45.5703 56.0622 45.2641L55.7328 44.3199C54.776 44.6537 53.9808 45.0745 53.3665 45.5943L54.0125 46.3577ZM56.0622 45.2641C56.9169 44.9659 57.905 44.812 59.0335 44.812V43.812C57.8154 43.812 56.7128 43.978 55.7328 44.3199L56.0622 45.2641ZM59.0335 44.812C60.1668 44.812 61.1895 45.0794 62.1124 45.6096L62.6106 44.7424C61.5281 44.1206 60.3322 43.812 59.0335 43.812V44.812ZM62.1124 45.6096C63.0271 46.135 63.764 46.9061 64.3213 47.941L65.2017 47.4669C64.5643 46.2832 63.7012 45.369 62.6106 44.7424L62.1124 45.6096ZM64.3269 47.9512C64.8929 48.9466 65.1895 50.1897 65.1895 51.704H66.1895C66.1895 50.061 65.8675 48.6374 65.1961 47.4568L64.3269 47.9512ZM65.1895 51.704C65.1895 53.2092 64.8647 54.4831 64.2354 55.5451L65.0956 56.0549C65.8316 54.8129 66.1895 53.3562 66.1895 51.704H65.1895ZM64.2319 55.5511C63.6135 56.6282 62.7924 57.4469 61.766 58.0193L62.253 58.8927C63.4453 58.2278 64.3948 57.2758 65.0991 56.0489L64.2319 55.5511ZM61.766 58.0193C60.7317 58.5961 59.6209 58.884 58.4255 58.884V59.884C59.7901 59.884 61.0686 59.5532 62.253 58.8927L61.766 58.0193ZM57.4335 56.108C58.1859 56.108 58.8848 55.9124 59.5195 55.5218L58.9955 54.6702C58.5209 54.9622 58.0038 55.108 57.4335 55.108V56.108ZM59.5124 55.5261C60.165 55.1394 60.6846 54.6064 61.0676 53.9361L60.1994 53.4399C59.8998 53.9642 59.502 54.3699 59.0026 54.6659L59.5124 55.5261ZM61.0676 53.9361C61.4558 53.2568 61.6455 52.498 61.6455 51.672H60.6455C60.6455 52.3393 60.4939 52.9245 60.1994 53.4399L61.0676 53.9361ZM61.6455 51.672C61.6455 50.8462 61.4558 50.0949 61.0636 49.4331L60.2034 49.9429C60.4938 50.4331 60.6455 51.0044 60.6455 51.672H61.6455ZM61.0636 49.4331C60.6779 48.7821 60.1551 48.2707 59.5003 47.9069L59.0147 48.7811C59.5119 49.0573 59.9064 49.4419 60.2034 49.9429L61.0636 49.4331ZM59.5195 47.9182C58.8848 47.5276 58.1859 47.332 57.4335 47.332V48.332C58.0038 48.332 58.5209 48.4778 58.9955 48.7698L59.5195 47.9182ZM57.4335 47.332C56.8008 47.332 56.197 47.4377 55.6259 47.6518L55.9771 48.5882C56.43 48.4183 56.9142 48.332 57.4335 48.332V47.332ZM55.6372 47.6478C55.0831 47.8405 54.5949 48.1323 54.1788 48.5239L54.8642 49.2521C55.1734 48.961 55.5386 48.7408 55.9658 48.5922L55.6372 47.6478ZM54.1795 48.5232C53.7815 48.8964 53.4756 49.3525 53.2587 49.8827L54.1843 50.2613C54.3514 49.8528 54.5788 49.5196 54.8635 49.2528L54.1795 48.5232ZM53.2215 50.072V53.496H54.2215V50.072H53.2215ZM53.2826 53.7354C53.5604 54.2449 53.8903 54.6836 54.2755 55.0448L54.9595 54.3152C54.662 54.0364 54.3946 53.6858 54.1604 53.2566L53.2826 53.7354ZM54.2996 55.066C54.7089 55.403 55.1753 55.665 55.6946 55.8539L56.0364 54.9141C55.6171 54.7616 55.2515 54.5544 54.9354 54.294L54.2996 55.066ZM55.7139 55.8605C56.2397 56.0278 56.8146 56.108 57.4335 56.108V55.108C56.9004 55.108 56.4299 55.0389 56.0171 54.9075L55.7139 55.8605ZM69.2103 45.016V44.516H68.7103V45.016H69.2103ZM73.6903 45.016H74.1903V44.516H73.6903V45.016ZM73.6903 59V59.5H74.1903V59H73.6903ZM69.2103 59H68.7103V59.5H69.2103V59ZM69.8823 38.424L69.5698 38.0335L69.5622 38.0399L69.8823 38.424ZM73.2103 38.424L72.8821 38.8014L72.8902 38.8081L73.2103 38.424ZM73.2103 41.688L73.5287 42.0735L73.5303 42.0721L73.2103 41.688ZM69.8823 41.688L69.5622 42.0721L69.5708 42.0793L69.5797 42.0861L69.8823 41.688ZM69.2103 45.516H73.6903V44.516H69.2103V45.516ZM73.1903 45.016V59H74.1903V45.016H73.1903ZM73.6903 58.5H69.2103V59.5H73.6903V58.5ZM69.7103 59V45.016H68.7103V59H69.7103ZM69.6143 40.056C69.6143 39.5444 69.8033 39.1406 70.2023 38.8081L69.5622 38.0399C68.9372 38.5607 68.6143 39.2449 68.6143 40.056H69.6143ZM70.1946 38.8144C70.6527 38.448 71.1105 38.284 71.5783 38.284V37.284C70.8514 37.284 70.1785 37.5467 69.5699 38.0336L70.1946 38.8144ZM71.5783 38.284C72.044 38.284 72.4738 38.4462 72.8822 38.8013L73.5383 38.0467C72.9654 37.5485 72.3072 37.284 71.5783 37.284V38.284ZM72.8902 38.8081C73.2892 39.1406 73.4783 39.5444 73.4783 40.056H74.4783C74.4783 39.2449 74.1553 38.5607 73.5303 38.0399L72.8902 38.8081ZM73.4783 40.056C73.4783 40.5676 73.2892 40.9714 72.8902 41.3039L73.5303 42.0721C74.1553 41.5513 74.4783 40.8671 74.4783 40.056H73.4783ZM72.8918 41.3025C72.4844 41.6391 72.0514 41.796 71.5783 41.796V42.796C72.2998 42.796 72.9547 42.5476 73.5287 42.0735L72.8918 41.3025ZM71.5783 41.796C71.1034 41.796 70.6422 41.6376 70.1848 41.2899L69.5797 42.0861C70.1889 42.5491 70.8585 42.796 71.5783 42.796V41.796ZM70.2023 41.3039C69.8033 40.9714 69.6143 40.5676 69.6143 40.056H68.6143C68.6143 40.8671 68.9372 41.5513 69.5622 42.0721L70.2023 41.3039ZM79.616 38.872V38.372H79.116V38.872H79.616ZM84.096 38.872H84.596V38.372H84.096V38.872ZM84.096 44.952H83.596V45.452H84.096V44.952ZM87.488 44.952H87.988V44.452H87.488V44.952ZM87.488 48.44V48.94H87.988V48.44H87.488ZM84.096 48.44V47.94H83.596V48.44H84.096ZM84.096 59V59.5H84.596V59H84.096ZM79.616 59H79.116V59.5H79.616V59ZM79.616 48.44H80.116V47.94H79.616V48.44ZM77.44 48.44H76.94V48.94H77.44V48.44ZM77.44 44.952V44.452H76.94V44.952H77.44ZM79.616 44.952V45.452H80.116V44.952H79.616ZM79.616 39.372H84.096V38.372H79.616V39.372ZM83.596 38.872V44.952H84.596V38.872H83.596ZM84.096 45.452H87.488V44.452H84.096V45.452ZM86.988 44.952V48.44H87.988V44.952H86.988ZM87.488 47.94H84.096V48.94H87.488V47.94ZM83.596 48.44V59H84.596V48.44H83.596ZM84.096 58.5H79.616V59.5H84.096V58.5ZM80.116 59V48.44H79.116V59H80.116ZM79.616 47.94H77.44V48.94H79.616V47.94ZM77.94 48.44V44.952H76.94V48.44H77.94ZM77.44 45.452H79.616V44.452H77.44V45.452ZM80.116 44.952V38.872H79.116V44.952H80.116Z" fill="#3E3E3E"/>
</g>
<defs>
<filter id="filter0_d_6_10" x="0.446228" y="33.752" width="91.0417" height="33.632" filterUnits="userSpaceOnUse" color-interpolation-filters="sRGB">
<feFlood flood-opacity="0" result="BackgroundImageFix"/>
<feColorMatrix in="SourceAlpha" type="matrix" values="0 0 0 0 0 0 0 0 0 0 0 0 0 0 0 0 0 0 127 0" result="hardAlpha"/>
<feOffset dy="4"/>
<feGaussianBlur stdDeviation="2"/>
<feComposite in2="hardAlpha" operator="out"/>
<feColorMatrix type="matrix" values="0 0 0 0 0 0 0 0 0 0 0 0 0 0 0 0 0 0 0.25 0"/>
<feBlend mode="normal" in2="BackgroundImageFix" result="effect1_dropShadow_6_10"/>
<feBlend mode="normal" in="SourceGraphic" in2="effect1_dropShadow_6_10" result="shape"/>
</filter>
<linearGradient id="paint0_linear_6_10" x1="15" y1="0" x2="15" y2="28" gradientUnits="userSpaceOnUse">
<stop stop-color="#00FFFF"/>
<stop offset="0.520833" stop-color="#00FFFF" stop-opacity="0"/>
</linearGradient>
<linearGradient id="paint1_linear_6_10" x1="45" y1="0" x2="45" y2="28" gradientUnits="userSpaceOnUse">
<stop stop-color="#00FFFF"/>
<stop offset="0.864583" stop-color="#00FFFF" stop-opacity="0.01"/>
</linearGradient>
<linearGradient id="paint2_linear_6_10" x1="75" y1="0" x2="75" y2="28" gradientUnits="userSpaceOnUse">
<stop stop-color="#00FFFF"/>
<stop offset="1" stop-color="#00FFFF" stop-opacity="0.34"/>
</linearGradient>
<linearGradient id="paint3_linear_6_10" x1="45" y1="35" x2="45" y2="67" gradientUnits="userSpaceOnUse">
<stop offset="0.484375" stop-color="#00FFFF"/>
<stop offset="0.9999" stop-color="#00FFFF" stop-opacity="0.0104167"/>
<stop offset="1" stop-color="#00FFFF" stop-opacity="0"/>
</linearGradient>
</defs>
</svg>
